<svg xmlns="http://www.w3.org/2000/svg" width="19.906" height="19" viewBox="0 0 19.906 19">
  <defs>
    <style>
      .cls-1 {
        fill-rule: evenodd;
      }
    </style>
  </defs>
  <path id="Forme_6" data-name="Forme 6" class="cls-1" d="M898.437,212.023a0.5,0.5,0,0,1-.368-0.832l8.784-9.729a1.382,1.382,0,0,1,1.036-.469h0a1.389,1.389,0,0,1,1.037.469l8.784,9.729a0.5,0.5,0,1,1-.738.669l-8.784-9.729a0.385,0.385,0,0,0-.6,0l-8.784,9.729a0.5,0.5,0,0,1-.369.164h0ZM913.36,220H902.416a1.5,1.5,0,0,1-1.492-1.5v-7.976a0.5,0.5,0,1,1,1,0V218.5a0.5,0.5,0,0,0,.5.5H913.36a0.5,0.5,0,0,0,.5-0.5v-7.976a0.5,0.5,0,1,1,.994,0V218.5A1.5,1.5,0,0,1,913.36,220Z" transform="translate(-897.938 -201)"/>
</svg>
