<svg xmlns="http://www.w3.org/2000/svg" width="19" height="19" viewBox="0 0 19 19">
  <defs>
    <style>
      .cls-1 {
        fill-rule: evenodd;
      }
    </style>
  </defs>
  <path id="Forme_6" data-name="Forme 6" class="cls-1" d="M914.218,203.782A9.5,9.5,0,1,0,917,210.5,9.438,9.438,0,0,0,914.218,203.782ZM907.5,219a8.5,8.5,0,1,1,8.5-8.5A8.51,8.51,0,0,1,907.5,219Zm5.629-11.751a0.5,0.5,0,0,0-.683-0.182l-4.92,2.841-3.835-2.686a0.5,0.5,0,0,0-.573.819l4.1,2.869a0,0,0,0,1,0,0l0.026,0.015,0.007,0a0.182,0.182,0,0,0,.027.015l0.006,0,0.031,0.013,0.019,0.007,0.014,0,0.02,0.006,0.013,0,0.02,0,0.014,0,0.019,0,0.018,0,0.016,0H907.5a0.543,0.543,0,0,0,.057,0h0a0.53,0.53,0,0,0,.055-0.01h0a0.339,0.339,0,0,0,.051-0.017l0.007,0a0.39,0.39,0,0,0,.047-0.02l0.009,0,0.017-.01,5.2-3a0.5,0.5,0,0,0,.183-0.683h0Z" transform="translate(-898 -201)"/>
</svg>
