<svg xmlns="http://www.w3.org/2000/svg" width="18" height="18.969" viewBox="0 0 18 18.969">
  <defs>
    <style>
      .cls-1 {
        fill-rule: evenodd;
        fill:white;
      }
    </style>
  </defs>
  <path id="Forme_7" data-name="Forme 7" class="cls-1" d="M915.369,215.888a11.618,11.618,0,0,0-4.253-1.7,1.364,1.364,0,0,1-.737-1.011,1.529,1.529,0,0,1,.446-1.554,3.577,3.577,0,0,0,.964-1.333,6.8,6.8,0,0,0,1.481-3.042,6.117,6.117,0,0,0-.167-2.82,4.4,4.4,0,0,0-2.261-2.643,6.6,6.6,0,0,0-3.3-.76,4.249,4.249,0,0,0-1.917.49,2.247,2.247,0,0,0-1,1.084,2.183,2.183,0,0,0-1.782,1.342,5.246,5.246,0,0,0-.051,3.334,7.516,7.516,0,0,0,1.517,3.016,2.86,2.86,0,0,0,.867,1.333,1.581,1.581,0,0,1,.413,1.566,1.35,1.35,0,0,1-.7,1,11.608,11.608,0,0,0-4.253,1.7A4.257,4.257,0,0,0,899,219.5a0.5,0.5,0,0,0,.5.5h17a0.5,0.5,0,0,0,.5-0.5,4.259,4.259,0,0,0-1.63-3.607h0Zm-11.612-11.544a1.218,1.218,0,0,1,1.242-.77,0.5,0.5,0,0,0,.49-0.4c0.159-.793,1.183-1.114,2.089-1.15,1.818-.074,4.035.841,4.563,2.682a5.006,5.006,0,0,1,.03,2.84,6.32,6.32,0,0,0-.33-1.621,1.066,1.066,0,0,0-.842-0.858c-2.568,0-4.636-.341-5.146-0.849a0.5,0.5,0,0,0-.854.352,3.867,3.867,0,0,1-.759,2.6,0.5,0.5,0,0,0-.186.4c0,0.124,0,.251,0,0.385a5.223,5.223,0,0,1-.3-3.606h0ZM900.02,219a3.079,3.079,0,0,1,1.224-2.325,10.25,10.25,0,0,1,3.872-1.513,2.222,2.222,0,0,0,1.443-1.733,2.5,2.5,0,0,0-.734-2.555c-0.754-.644-0.76-1.76-0.766-2.842,0-.089,0-0.181,0-0.272a4.473,4.473,0,0,0,.891-2.343,9.2,9.2,0,0,0,2.436.519c0.741,0.078,1.578.122,2.431,0.127a5.425,5.425,0,0,1,.366,2.454,3.382,3.382,0,0,1-1.008,2.358,2.494,2.494,0,0,0-.767,2.541,2.274,2.274,0,0,0,1.476,1.746,10.266,10.266,0,0,1,3.872,1.513A3.079,3.079,0,0,1,915.978,219H900.02Z" transform="translate(-899 -201.031)"/>
</svg>
