<svg xmlns="http://www.w3.org/2000/svg" width="18.969" height="17" viewBox="0 0 18.969 17">
  <defs>
    <style>
      .cls-1 {
        fill-rule: evenodd;
      }
    </style>
  </defs>
  <path id="Forme_16" data-name="Forme 16" class="cls-1" d="M916.478,219h-17.96a0.5,0.5,0,0,1-.435-0.746l8.98-16a0.5,0.5,0,0,1,.87,0l8.979,16A0.5,0.5,0,0,1,916.478,219Zm-17.106-1h16.252L907.5,203.52Zm8.126-4a0.5,0.5,0,0,1-.5-0.5v-5a0.5,0.5,0,1,1,1,0v5A0.5,0.5,0,0,1,907.5,214Zm0,3a0.5,0.5,0,0,1-.5-0.5v-1a0.5,0.5,0,1,1,1,0v1A0.5,0.5,0,0,1,907.5,217Z" transform="translate(-898.031 -202)"/>
</svg>
