<svg xmlns="http://www.w3.org/2000/svg" width="17" height="20" viewBox="0 0 17 20">
  <defs>
    <style>
      .cls-1 {
        fill-rule: evenodd;
      }
    </style>
  </defs>
  <path id="Forme_9" data-name="Forme 9" class="cls-1" d="M914.5,221h-14a1.5,1.5,0,0,1-1.5-1.5v-14a1.5,1.5,0,0,1,1.5-1.5h1a0.5,0.5,0,0,1,0,1h-1a0.5,0.5,0,0,0-.5.5v14a0.5,0.5,0,0,0,.5.5h14a0.5,0.5,0,0,0,.5-0.5v-14a0.5,0.5,0,0,0-.5-0.5h-1a0.5,0.5,0,0,1,0-1h1a1.5,1.5,0,0,1,1.5,1.5v14A1.5,1.5,0,0,1,914.5,221Zm-3-15h-8a0.5,0.5,0,0,1-.5-0.5,2.318,2.318,0,0,1,1.276-2.2,2.925,2.925,0,0,1,.764-0.254,2.5,2.5,0,0,1,4.918,0,2.913,2.913,0,0,1,.764.254A2.314,2.314,0,0,1,912,205.472a0.272,0.272,0,0,1,0,.028,0.5,0.5,0,0,1-.5.5h0Zm-7.442-1h6.881a1.208,1.208,0,0,0-.638-0.79A2.007,2.007,0,0,0,909.5,204a0.5,0.5,0,0,1-.5-0.5,1.5,1.5,0,0,0-3,0,0.5,0.5,0,0,1-.5.5,2.016,2.016,0,0,0-.8.21A1.212,1.212,0,0,0,904.059,205Zm3.441-1a0.493,0.493,0,0,1-.353-0.148A0.506,0.506,0,0,1,907,203.5a0.494,0.494,0,0,1,.147-0.352A0.5,0.5,0,0,1,907.5,203a0.491,0.491,0,0,1,.352.148A0.5,0.5,0,0,1,907.5,204Zm3,14h-6a1.175,1.175,0,0,1-1.158-1.606,3.256,3.256,0,0,1,.849-1.232,5.295,5.295,0,0,1,6.617,0,3.251,3.251,0,0,1,.85,1.232A1.176,1.176,0,0,1,910.5,218Zm-3-3c-2.609,0-3.2,1.692-3.209,1.709a0.258,0.258,0,0,0,0,.219,0.261,0.261,0,0,0,.208.071h6a0.263,0.263,0,0,0,.208-0.071,0.256,0.256,0,0,0,0-.217c-0.032-.089-0.652-1.712-3.21-1.712h0Zm0-2a2.5,2.5,0,1,1,2.5-2.5A2.5,2.5,0,0,1,907.5,213Zm0-4a1.5,1.5,0,1,0,1.5,1.5A1.5,1.5,0,0,0,907.5,209Z" transform="translate(-899 -201)"/>
</svg>
