<svg xmlns="http://www.w3.org/2000/svg" width="19" height="20" viewBox="0 0 19 20">
  <defs>
    <style>
      .cls-1 {
        fill-rule: evenodd;
      }
    </style>
  </defs>
  <path id="Forme_22" data-name="Forme 22" class="cls-1" d="M900.5,221a0.5,0.5,0,0,1-.5-0.5v-8a0.5,0.5,0,0,1,1,0v8A0.5,0.5,0,0,1,900.5,221Zm0-14a0.5,0.5,0,0,1-.5-0.5v-5a0.5,0.5,0,0,1,1,0v5A0.5,0.5,0,0,1,900.5,207Zm1,4h-2a1.5,1.5,0,0,1,0-3h2A1.5,1.5,0,0,1,901.5,211Zm-2-2a0.5,0.5,0,0,0,0,1h2a0.5,0.5,0,0,0,0-1h-2Zm8,12a0.5,0.5,0,0,1-.5-0.5v-4a0.5,0.5,0,0,1,1,0v4A0.5,0.5,0,0,1,907.5,221Zm0-10a0.5,0.5,0,0,1-.5-0.5v-9a0.5,0.5,0,0,1,1,0v9A0.5,0.5,0,0,1,907.5,211Zm1,4h-2a1.5,1.5,0,0,1,0-3h2A1.5,1.5,0,0,1,908.5,215Zm-2-2a0.5,0.5,0,0,0,0,1h2a0.5,0.5,0,0,0,0-1h-2Zm8,8a0.5,0.5,0,0,1-.5-0.5v-10a0.5,0.5,0,0,1,1,0v10A0.5,0.5,0,0,1,914.5,221Zm0-16a0.5,0.5,0,0,1-.5-0.5v-3a0.5,0.5,0,0,1,1,0v3A0.5,0.5,0,0,1,914.5,205Zm1,4h-2a1.5,1.5,0,0,1,0-3h2A1.5,1.5,0,0,1,915.5,209Zm-2-2a0.5,0.5,0,0,0,0,1h2a0.5,0.5,0,0,0,0-1h-2Z" transform="translate(-898 -201)"/>
</svg>
