<svg xmlns="http://www.w3.org/2000/svg" width="15.938" height="18.906" viewBox="0 0 15.938 18.906">
  <defs>
    <style>
      .cls-1 {
        fill-rule: evenodd;
        fill:white;
      }
    </style>
  </defs>
  <path id="Forme_9_copie" data-name="Forme 9 copie" class="cls-1" d="M915.477,220H900.515a0.5,0.5,0,0,1-.381-0.177,0.5,0.5,0,0,1-.112-0.4,6.762,6.762,0,0,1,1.235-3.462c0.686-.8,1.737-1.313,3.629-1.768a2.076,2.076,0,0,0,1.081-1.413,1.084,1.084,0,0,0-.291-1.158,5.071,5.071,0,0,1-1.544-3.177,6.343,6.343,0,0,1,.165-2.766,0.776,0.776,0,0,1,.707-0.631,3.773,3.773,0,0,0,2.642-.851,0.5,0.5,0,0,1,.706,0,3.763,3.763,0,0,0,2.637.851,0.774,0.774,0,0,1,.706.631,6.34,6.34,0,0,1,.166,2.766,5.071,5.071,0,0,1-1.544,3.177,1.09,1.09,0,0,0-.324,1.165,2.071,2.071,0,0,0,1.114,1.406c1.892,0.455,2.943.967,3.628,1.768a6.753,6.753,0,0,1,1.236,3.462,0.5,0.5,0,0,1-.112.4,0.5,0.5,0,0,1-.381.177h0Zm-14.367-1h13.773c-0.457-2.427-1.043-3.131-4.011-3.845a2.975,2.975,0,0,1-1.85-2.141,2.068,2.068,0,0,1,.645-2.155,4.347,4.347,0,0,0,1.235-2.816,5.282,5.282,0,0,0-.135-2.006,5.02,5.02,0,0,0-5.542,0,5.321,5.321,0,0,0-.136,2.006,4.349,4.349,0,0,0,1.236,2.816,2.058,2.058,0,0,1,.613,2.148,2.966,2.966,0,0,1-1.818,2.148c-2.967.714-3.554,1.418-4.01,3.845h0Zm10.377-5.983a0.5,0.5,0,0,1-.224-0.945,14.4,14.4,0,0,1,3.427-.933,23.112,23.112,0,0,1-1.761-4.961c-0.152-.574-0.284-1.071-0.419-1.478a3.708,3.708,0,0,0-2.556-2.542,1.8,1.8,0,0,0-1.621.247,0.5,0.5,0,0,1-.35.144h0a0.5,0.5,0,0,1-.352-0.149,1.767,1.767,0,0,0-1.573-.248,3.7,3.7,0,0,0-2.572,2.548c-0.137.409-.269,0.908-0.423,1.484a22.977,22.977,0,0,1-1.769,4.975,18.572,18.572,0,0,1,3.437.914,0.5,0.5,0,0,1-.447.893,22.946,22.946,0,0,0-3.853-.952,0.5,0.5,0,0,1-.367-0.285,0.5,0.5,0,0,1,.026-0.463,20.271,20.271,0,0,0,2.009-5.338c0.158-.592.293-1.1,0.439-1.543a4.684,4.684,0,0,1,3.294-3.2,2.944,2.944,0,0,1,2.156.243,3,3,0,0,1,2.2-.237,4.315,4.315,0,0,1,1.887,1.014,5.074,5.074,0,0,1,1.383,2.183c0.146,0.437.281,0.947,0.438,1.538a20.269,20.269,0,0,0,2.01,5.343,0.5,0.5,0,0,1,.022.472,0.5,0.5,0,0,1-.383.279,16.916,16.916,0,0,0-3.833.949,0.5,0.5,0,0,1-.223.052h0Z" transform="translate(-900.031 -201.094)"/>
</svg>
