<svg xmlns="http://www.w3.org/2000/svg" width="18" height="20" viewBox="0 0 18 20">
  <defs>
    <style>
      .cls-1 {
        fill-rule: evenodd;
      }
    </style>
  </defs>
  <path id="Forme_9" data-name="Forme 9" class="cls-1" d="M916.5,203h-5.75l-1.35-1.8a0.5,0.5,0,0,0-.4-0.2h-2a0.5,0.5,0,0,0-.4.2l-1.35,1.8H899.5a0.5,0.5,0,0,0,0,1h17A0.5,0.5,0,0,0,916.5,203Zm-9.25-1h1.5l0.75,1h-3Zm8.332,3.007a0.5,0.5,0,0,0-.575.411l-2.336,14.014A0.725,0.725,0,0,1,912,220h-8a0.724,0.724,0,0,1-.671-0.569l-2.336-14.014a0.5,0.5,0,0,0-.986.164l2.336,14.014A1.718,1.718,0,0,0,904,221h8a1.719,1.719,0,0,0,1.658-1.4L916,205.582a0.5,0.5,0,0,0-.411-0.575h0Z" transform="translate(-899 -201)"/>
</svg>
