<svg xmlns="http://www.w3.org/2000/svg" width="18.969" height="17" viewBox="0 0 18.969 17">
  <defs>
    <style>
      .cls-1 {
        fill-rule: evenodd;
      }
    </style>
  </defs>
  <path id="Forme_9" data-name="Forme 9" class="cls-1" d="M898.537,219a0.5,0.5,0,0,1-.256-0.929,6.207,6.207,0,0,0,2.635-3.179,6.85,6.85,0,0,1-2.878-5.391,6.155,6.155,0,0,1,.766-2.964,7.668,7.668,0,0,1,2.058-2.38,11.357,11.357,0,0,1,13.315,0,7.642,7.642,0,0,1,2.057,2.38,6.118,6.118,0,0,1,0,5.928,7.664,7.664,0,0,1-2.057,2.38A10.835,10.835,0,0,1,907.519,217a11.792,11.792,0,0,1-3.009-.384,20.656,20.656,0,0,1-2.185,1.269A8.925,8.925,0,0,1,898.538,219h0Zm8.982-16c-4.677,0-8.483,2.916-8.483,6.5a5.958,5.958,0,0,0,2.751,4.792,0.5,0.5,0,0,1,.2.539,6.921,6.921,0,0,1-1.578,2.787,16.941,16.941,0,0,0,3.732-1.959,0.5,0.5,0,0,1,.42-0.069,10.722,10.722,0,0,0,2.962.409c4.677,0,8.483-2.915,8.483-6.5S912.2,203,907.519,203Zm3.992,4h-7.984a0.5,0.5,0,0,1,0-1h7.984A0.5,0.5,0,0,1,911.511,207Zm0,2h-7.984a0.5,0.5,0,0,1,0-1h7.984A0.5,0.5,0,0,1,911.511,209Zm0,2h-7.984a0.5,0.5,0,0,1,0-1h7.984A0.5,0.5,0,0,1,911.511,211Zm-2,2h-5.988a0.5,0.5,0,0,1,0-1h5.988A0.5,0.5,0,0,1,909.515,213Z" transform="translate(-898.031 -202)"/>
</svg>
