<svg xmlns="http://www.w3.org/2000/svg" width="20" height="18" viewBox="0 0 20 18">
  <defs>
    <style>
      .cls-1 {
        fill-rule: evenodd;
      }
    </style>
  </defs>
  <path id="Forme_21" fill="rgb(232,175,32)" data-name="Forme 21" class="cls-1" d="M916.5,203H914v-0.5a0.5,0.5,0,0,0-1,0V203H903v-0.5a0.5,0.5,0,0,0-1,0V203h-2.5a1.5,1.5,0,0,0-1.5,1.5v14a1.5,1.5,0,0,0,1.5,1.5h17a1.5,1.5,0,0,0,1.5-1.5v-14A1.5,1.5,0,0,0,916.5,203Zm-17,1H902v1.5a0.5,0.5,0,0,0,1,0V204h10v1.5a0.5,0.5,0,0,0,1,0V204h2.5a0.5,0.5,0,0,1,.5.5V207H899v-2.5A0.5,0.5,0,0,1,899.5,204Zm17,15h-17a0.5,0.5,0,0,1-.5-0.5V208h18v10.5A0.5,0.5,0,0,1,916.5,219Zm-7.793-5.5,2.645-2.647a0.5,0.5,0,0,0-.7-0.706L908,212.793l-2.646-2.646a0.5,0.5,0,0,0-.707.706l2.646,2.647-2.646,2.646a0.5,0.5,0,0,0,.708.708L908,214.207l2.646,2.647a0.5,0.5,0,0,0,.708-0.708l-2.646-2.646h0Z" transform="translate(-898 -202)"/>
</svg>
