<svg xmlns="http://www.w3.org/2000/svg" width="19" height="19" viewBox="0 0 19 19">
  <defs>
    <style>
      .cls-1 {
        fill-rule: evenodd;
      }
    </style>
  </defs>
  <path id="Forme_24" fill="rgb(232,175,32)" data-name="Forme 24" class="cls-1" d="M915.5,220h-16a1.5,1.5,0,0,1-1.5-1.5v-16a1.5,1.5,0,0,1,1.5-1.5h16a1.5,1.5,0,0,1,1.5,1.5v16A1.5,1.5,0,0,1,915.5,220Zm-16-18a0.5,0.5,0,0,0-.5.5v16a0.5,0.5,0,0,0,.5.5h16a0.5,0.5,0,0,0,.5-0.5v-16a0.5,0.5,0,0,0-.5-0.5h-16Zm5,15h-2a0.5,0.5,0,0,1-.5-0.5v-9a0.5,0.5,0,0,1,.5-0.5h2a0.5,0.5,0,0,1,.5.5v9A0.5,0.5,0,0,1,904.5,217Zm-1.5-1h1v-8h-1v8Zm5.5,1h-2a0.5,0.5,0,0,1-.5-0.5v-12a0.5,0.5,0,0,1,.5-0.5h2a0.5,0.5,0,0,1,.5.5v12A0.5,0.5,0,0,1,908.5,217Zm-1.5-1h1V205h-1v11Zm5.5,1h-2a0.5,0.5,0,0,1-.5-0.5v-5a0.5,0.5,0,0,1,.5-0.5h2a0.5,0.5,0,0,1,.5.5v5A0.5,0.5,0,0,1,912.5,217Zm-1.5-1h1v-4h-1v4Z" transform="translate(-898 -201)"/>
</svg>
