<svg xmlns="http://www.w3.org/2000/svg" width="19.907" height="18" viewBox="0 0 19.907 18">
  <defs>
    <style>
      .cls-1 {
        fill-rule: evenodd;
      }
    </style>
  </defs>
  <path id="Forme_20" data-name="Forme 20" class="cls-1" d="M917.806,212.181l-8.784-9.727a1.385,1.385,0,0,0-1.037-.468h0a1.388,1.388,0,0,0-1.037.468l-8.784,9.727a0.5,0.5,0,0,0,.035.7,0.495,0.495,0,0,0,.7-0.036l2.118-2.345V218.5a1.5,1.5,0,0,0,1.493,1.5h10.944a1.5,1.5,0,0,0,1.493-1.5V210.5l2.118,2.345a0.5,0.5,0,1,0,.738-0.669h0ZM909.975,219H906v-4.486a0.5,0.5,0,0,1,.5-0.5h2.985a0.5,0.5,0,0,1,.5.5V219Zm3.98-.5a0.5,0.5,0,0,1-.5.5H910.97v-4.486a1.5,1.5,0,0,0-1.492-1.495h-2.985A1.5,1.5,0,0,0,905,214.509V219h-2.487a0.5,0.5,0,0,1-.5-0.5V209.4l5.672-6.28a0.385,0.385,0,0,1,.6,0l5.672,6.28V218.5Z" transform="translate(-898.031 -202)"/>
</svg>
