<svg xmlns="http://www.w3.org/2000/svg" width="20" height="18" viewBox="0 0 20 18">
  <defs>
    <style>
      .cls-1 {
        fill-rule: evenodd;
      }
    </style>
  </defs>
  <path id="Forme_6" fill="rgb(232,175,32)" data-name="Forme 6" class="cls-1" d="M916.5,203H914v-0.5a0.5,0.5,0,0,0-1,0V203H903v-0.5a0.5,0.5,0,0,0-1,0V203h-2.5a1.5,1.5,0,0,0-1.5,1.5v14a1.5,1.5,0,0,0,1.5,1.5h17a1.5,1.5,0,0,0,1.5-1.5v-14A1.5,1.5,0,0,0,916.5,203Zm-17,1H902v1.5a0.5,0.5,0,0,0,1,0V204h10v1.5a0.5,0.5,0,0,0,1,0V204h2.5a0.5,0.5,0,0,1,.5.5V207H899v-2.5A0.5,0.5,0,0,1,899.5,204Zm17,15h-17a0.5,0.5,0,0,1-.5-0.5V208h18v10.5A0.5,0.5,0,0,1,916.5,219Zm-11-8h-1a0.5,0.5,0,0,1,0-1h1A0.5,0.5,0,0,1,905.5,211Zm3,0h-1a0.5,0.5,0,0,1,0-1h1A0.5,0.5,0,0,1,908.5,211Zm3,0h-1a0.5,0.5,0,0,1,0-1h1A0.5,0.5,0,0,1,911.5,211Zm3,0h-1a0.5,0.5,0,0,1,0-1h1A0.5,0.5,0,0,1,914.5,211Zm-12,2h-1a0.5,0.5,0,0,1,0-1h1A0.5,0.5,0,0,1,902.5,213Zm3,0h-1a0.5,0.5,0,0,1,0-1h1A0.5,0.5,0,0,1,905.5,213Zm3,0h-1a0.5,0.5,0,0,1,0-1h1A0.5,0.5,0,0,1,908.5,213Zm3,0h-1a0.5,0.5,0,0,1,0-1h1A0.5,0.5,0,0,1,911.5,213Zm3,0h-1a0.5,0.5,0,0,1,0-1h1A0.5,0.5,0,0,1,914.5,213Zm-12,2h-1a0.5,0.5,0,0,1,0-1h1A0.5,0.5,0,0,1,902.5,215Zm3,0h-1a0.5,0.5,0,0,1,0-1h1A0.5,0.5,0,0,1,905.5,215Zm3,0h-1a0.5,0.5,0,0,1,0-1h1A0.5,0.5,0,0,1,908.5,215Zm3,0h-1a0.5,0.5,0,0,1,0-1h1A0.5,0.5,0,0,1,911.5,215Zm3,0h-1a0.5,0.5,0,0,1,0-1h1A0.5,0.5,0,0,1,914.5,215Zm-12,2h-1a0.5,0.5,0,0,1,0-1h1A0.5,0.5,0,0,1,902.5,217Zm3,0h-1a0.5,0.5,0,0,1,0-1h1A0.5,0.5,0,0,1,905.5,217Zm3,0h-1a0.5,0.5,0,0,1,0-1h1A0.5,0.5,0,0,1,908.5,217Zm3,0h-1a0.5,0.5,0,0,1,0-1h1A0.5,0.5,0,0,1,911.5,217Zm3,0h-1a0.5,0.5,0,0,1,0-1h1A0.5,0.5,0,0,1,914.5,217Z" transform="translate(-898 -202)"/>
</svg>
