<svg xmlns="http://www.w3.org/2000/svg" width="18.938" height="12.938" viewBox="0 0 18.938 12.938">
  <defs>
    <style>
      .cls-1 {
        fill-rule: evenodd;
      }
    </style>
  </defs>
  <path id="Forme_5" data-name="Forme 5" class="cls-1" d="M916.753,210.169l-6.132-5.981a0.517,0.517,0,0,0-.721,0,0.488,0.488,0,0,0,0,.7l5.258,5.13h-16.65a0.5,0.5,0,1,0,0,1h16.65l-5.258,5.129a0.489,0.489,0,0,0,0,.705,0.512,0.512,0,0,0,.361.146,0.519,0.519,0,0,0,.362-0.146l6.132-5.981a0.491,0.491,0,0,0,0-.705Z" transform="translate(-898 -204.062)"/>
</svg>
