<svg xmlns="http://www.w3.org/2000/svg" width="20" height="14" viewBox="0 0 20 14">
  <defs>
    <style>
      .cls-1 {
        fill-rule: evenodd;
      }
    </style>
  </defs>
  <path id="Forme_22" data-name="Forme 22" fill="rgb(232,175,32)" class="cls-1" d="M916.5,218h-17a1.5,1.5,0,0,1-1.5-1.5v-11a1.5,1.5,0,0,1,1.5-1.5h17a1.5,1.5,0,0,1,1.5,1.5v11A1.5,1.5,0,0,1,916.5,218Zm-17-13a0.5,0.5,0,0,0-.5.5v11a0.5,0.5,0,0,0,.5.5h17a0.5,0.5,0,0,0,.5-0.5v-11a0.5,0.5,0,0,0-.5-0.5h-17Zm7,10h-5a0.5,0.5,0,0,1-.5-0.5,2.567,2.567,0,0,1,.388-1.265,3.38,3.38,0,0,1,5.224,0,2.6,2.6,0,0,1,.388,1.227c0,0.012,0,.025,0,0.038A0.5,0.5,0,0,1,906.5,215Zm-4.384-1h3.766a1.563,1.563,0,0,0-.14-0.267,2.439,2.439,0,0,0-3.486,0A1.527,1.527,0,0,0,902.117,214Zm12.383-5h-5a0.5,0.5,0,0,1,0-1h5A0.5,0.5,0,0,1,914.5,209Zm-1,2h-4a0.5,0.5,0,0,1,0-1h4A0.5,0.5,0,0,1,913.5,211Zm0,2h-4a0.5,0.5,0,0,1,0-1h4A0.5,0.5,0,0,1,913.5,213Zm-9.5-2a2,2,0,1,1,2-2A2,2,0,0,1,904,211Zm0-3a1,1,0,1,0,1,1A1,1,0,0,0,904,208Zm10.5,7h-5a0.5,0.5,0,0,1,0-1h5A0.5,0.5,0,0,1,914.5,215Z" transform="translate(-898 -204)"/>
</svg>
