<svg xmlns="http://www.w3.org/2000/svg" width="17.812" height="17.843" viewBox="0 0 17.812 17.843">
  <defs>
    <style>
      .cls-1 {
        fill-rule: evenodd;
        fill:white;
      }
    </style>
  </defs>
  <path id="Forme_10" data-name="Forme 10" class="cls-1" d="M905.411,219.817a0.46,0.46,0,0,1-.115-0.015,9.133,9.133,0,0,1-2.361-.975,0.461,0.461,0,0,1-.171-0.618,1.842,1.842,0,0,0-2.5-2.5,0.462,0.462,0,0,1-.618-0.172,9.168,9.168,0,0,1-.975-2.361,0.459,0.459,0,0,1,.3-0.55,1.842,1.842,0,0,0,0-3.49,0.461,0.461,0,0,1-.3-0.551,9.168,9.168,0,0,1,.975-2.361,0.462,0.462,0,0,1,.618-0.171,1.843,1.843,0,0,0,2.5-2.5,0.46,0.46,0,0,1,.171-0.617,9.185,9.185,0,0,1,2.361-.976,0.461,0.461,0,0,1,.551.3,1.84,1.84,0,0,0,3.489,0,0.462,0.462,0,0,1,.551-0.3,9.171,9.171,0,0,1,2.361.976,0.459,0.459,0,0,1,.171.617,1.843,1.843,0,0,0,2.5,2.5,0.462,0.462,0,0,1,.618.171,9.183,9.183,0,0,1,.975,2.361,0.461,0.461,0,0,1-.3.551,1.841,1.841,0,0,0,0,3.49,0.46,0.46,0,0,1,.3.55,9.153,9.153,0,0,1-.975,2.361,0.462,0.462,0,0,1-.618.172,1.843,1.843,0,0,0-2.5,2.5,0.46,0.46,0,0,1-.171.618,9.133,9.133,0,0,1-2.361.975,0.461,0.461,0,0,1-.551-0.3,1.84,1.84,0,0,0-3.489,0,0.464,0.464,0,0,1-.437.314h0Zm2.182-2.488a2.761,2.761,0,0,1,2.444,1.475,8.292,8.292,0,0,0,1.391-.573,2.763,2.763,0,0,1,3.513-3.513,8.224,8.224,0,0,0,.573-1.391,2.763,2.763,0,0,1,0-4.889,8.367,8.367,0,0,0-.573-1.39,2.764,2.764,0,0,1-3.513-3.514,8.172,8.172,0,0,0-1.391-.572,2.763,2.763,0,0,1-4.889,0,8.162,8.162,0,0,0-1.39.572,2.8,2.8,0,0,1,.151.9,2.764,2.764,0,0,1-3.665,2.611,8.248,8.248,0,0,0-.573,1.39,2.763,2.763,0,0,1,0,4.889,8.258,8.258,0,0,0,.573,1.391,2.763,2.763,0,0,1,3.514,3.513,8.133,8.133,0,0,0,1.39.573A2.759,2.759,0,0,1,907.593,217.329Zm0-3.683a2.762,2.762,0,1,1,2.762-2.762A2.766,2.766,0,0,1,907.593,213.646Zm0-4.6a1.842,1.842,0,1,0,1.841,1.842A1.844,1.844,0,0,0,907.593,209.042Z" transform="translate(-898.688 -201.969)"/>
</svg>
