<svg xmlns="http://www.w3.org/2000/svg" width="13" height="18.969" viewBox="0 0 13 18.969">
  <defs>
    <style>
      .cls-1 {
        fill-rule: evenodd;
      }
    </style>
  </defs>
  <path id="Forme_23" data-name="Forme 23" class="cls-1" d="M913.5,219.956a0.5,0.5,0,0,1-.38-0.175l-5.62-6.544-5.62,6.544a0.5,0.5,0,0,1-.88-0.324V201.492a0.5,0.5,0,0,1,.5-0.5h12a0.5,0.5,0,0,1,.5.5v17.965A0.5,0.5,0,0,1,913.5,219.956Zm-6-7.985a0.5,0.5,0,0,1,.38.175l5.12,5.963V201.992H902v16.117l5.12-5.963A0.5,0.5,0,0,1,907.5,211.971Z" transform="translate(-901 -201)"/>
</svg>
