<?xml version="1.0" encoding="utf-8"?>
<!-- Generator: Adobe Illustrator 16.0.0, SVG Export Plug-In . SVG Version: 6.00 Build 0)  -->
<!DOCTYPE svg PUBLIC "-//W3C//DTD SVG 1.1//EN" "http://www.w3.org/Graphics/SVG/1.1/DTD/svg11.dtd">
<svg version="1.1" id="Calque_1" xmlns="http://www.w3.org/2000/svg" xmlns:xlink="http://www.w3.org/1999/xlink" x="0px" y="0px"
	 width="60px" height="60px" viewBox="0 0 54.285 37.598" enable-background="new 0 0 54.285 37.598" xml:space="preserve">
<path id="logo" fill-rule="evenodd" clip-rule="evenodd" fill="#FFFFFF" d="M24.399,26.778c0.626-0.409,1.223-0.878,1.772-1.422
	L38.6,13.104c1.178-1.156,2.803-1.877,4.604-1.877c2.789,0,5.171,1.735,6.091,4.171h-6.091c-0.628,0-1.199,0.253-1.611,0.655
	c-0.407,0.408-0.671,0.969-0.671,1.589c0,1.242,1.024,2.253,2.282,2.253h2.278l3.819-0.005h2.689c1.257,0,2.274-1.006,2.274-2.248
	h0.003c0-2.788-1.08-5.577-3.241-7.707c-4.32-4.263-11.328-4.263-15.649,0L22.84,22.289c-1.169,1.101-2.747,1.773-4.487,1.773
	c-3.598,0-6.513-2.877-6.513-6.418c0-3.543,2.915-6.418,6.513-6.418c1.793,0,3.419,0.721,4.6,1.877c0.892,0.883,2.333,0.883,3.225,0
	c0.836-0.82,0.882-2.121,0.153-3.007c-0.009-0.005-0.012-0.014-0.022-0.021c-0.044-0.053-0.09-0.099-0.137-0.142
	c-0.045-0.048-0.092-0.094-0.142-0.138c-0.009-0.005-0.021-0.014-0.027-0.021C21.676,5.672,14.79,5.727,10.526,9.935
	c-4.322,4.26-4.322,11.162,0,15.422C14.298,29.073,20.109,29.549,24.399,26.778z M2.278,4.491c1.261,0,2.276-1.007,2.276-2.245
	C4.554,1.007,3.539,0,2.278,0C1.018,0,0,1.007,0,2.246C0,3.484,1.018,4.491,2.278,4.491z M2.278,28.549h4.55
	c-1.246,0-2.253-0.978-2.273-2.201V8.979c0-1.244-1.016-2.245-2.276-2.245C1.018,6.734,0,7.735,0,8.979v17.325
	C0,27.545,1.018,28.549,2.278,28.549z M1.917,32.923h-1.29c-0.372,0-0.618,0.146-0.618,0.609v3.349c0,0.464,0.246,0.606,0.618,0.606
	h1.267c1.408,0,2.23-0.834,2.23-2.282C4.125,33.42,3.065,32.923,1.917,32.923z M1.956,36.653H1.064V33.76h0.885
	c0.77,0,1.116,0.548,1.116,1.445C3.065,35.908,2.796,36.653,1.956,36.653z M8.453,36.653H6.358v-1.105h1.788
	c0.277,0,0.494-0.075,0.494-0.4c0-0.319-0.217-0.398-0.494-0.398H6.358V33.76h2.04c0.309,0,0.533-0.087,0.533-0.418
	c0-0.328-0.225-0.419-0.533-0.419H5.923c-0.378,0-0.62,0.146-0.62,0.609v3.349c0,0.464,0.242,0.606,0.62,0.606h2.529
	c0.307,0,0.531-0.086,0.531-0.417C8.984,36.741,8.759,36.653,8.453,36.653z M13.157,32.843c-0.244,0-0.397,0.144-0.494,0.453
	l-0.99,3.105h-0.012l-0.953-3.105c-0.097-0.31-0.249-0.453-0.536-0.453c-0.261,0-0.532,0.113-0.532,0.46
	c0,0.084,0.019,0.186,0.064,0.305l1.3,3.602c0.108,0.298,0.314,0.361,0.644,0.361c0.328,0,0.531-0.063,0.644-0.361l1.335-3.602
	c0.045-0.119,0.065-0.221,0.065-0.305C13.691,32.956,13.42,32.843,13.157,32.843z M17.794,36.653h-2.09v-1.105h1.785
	c0.28,0,0.496-0.075,0.496-0.4c0-0.319-0.216-0.398-0.496-0.398h-1.785V33.76h2.038c0.308,0,0.533-0.087,0.533-0.418
	c0-0.328-0.226-0.419-0.533-0.419h-2.478c-0.371,0-0.613,0.146-0.613,0.609v3.349c0,0.464,0.242,0.606,0.613,0.606h2.529
	c0.309,0,0.533-0.086,0.533-0.417C18.328,36.741,18.103,36.653,17.794,36.653z M22.232,36.613h-1.761v-3.252
	c0-0.313-0.208-0.519-0.529-0.519c-0.32,0-0.527,0.205-0.527,0.519v3.52c0,0.464,0.248,0.606,0.62,0.606h2.197
	c0.303,0,0.547-0.149,0.547-0.438C22.779,36.767,22.535,36.613,22.232,36.613z M25.865,32.815c-1.517,0-2.342,0.993-2.342,2.332
	c0,1.385,0.683,2.45,2.342,2.45c1.582,0,2.343-1.162,2.343-2.45C28.208,33.809,27.385,32.815,25.865,32.815z M25.865,36.759
	c-0.99,0-1.284-0.733-1.284-1.611c0-0.873,0.422-1.496,1.284-1.496c0.863,0,1.288,0.623,1.288,1.496
	C27.153,36.025,26.825,36.759,25.865,36.759z M31.597,32.923h-1.615c-0.375,0-0.619,0.146-0.619,0.609v3.518
	c0,0.313,0.208,0.521,0.527,0.521c0.323,0,0.528-0.207,0.528-0.521v-1.233h1.171c1.022,0,1.609-0.618,1.609-1.445
	C33.199,33.356,32.482,32.923,31.597,32.923z M31.402,35.02h-0.983v-1.297h0.877c0.521,0,0.848,0.191,0.848,0.648
	C32.143,34.765,31.829,35.02,31.402,35.02z M38.459,32.843h-0.297c-0.33,0-0.481,0.124-0.592,0.472l-0.906,2.932h-0.014
	l-0.919-2.932c-0.11-0.348-0.267-0.472-0.597-0.472H34.83c-0.281,0-0.574,0.094-0.574,0.514v3.707c0,0.259,0.131,0.507,0.471,0.507
	c0.342,0,0.471-0.248,0.471-0.507v-2.83h0.012l0.983,3.032c0.071,0.215,0.234,0.305,0.454,0.305c0.217,0,0.379-0.09,0.446-0.305
	l0.988-3.032h0.011v2.83c0,0.259,0.129,0.507,0.468,0.507c0.342,0,0.475-0.248,0.475-0.507v-3.707
	C39.034,32.937,38.738,32.843,38.459,32.843z M43.544,36.653h-2.089v-1.105h1.787c0.276,0,0.494-0.075,0.494-0.4
	c0-0.319-0.218-0.398-0.494-0.398h-1.787V33.76h2.038c0.31,0,0.533-0.087,0.533-0.418c0-0.328-0.224-0.419-0.533-0.419h-2.479
	c-0.372,0-0.613,0.146-0.613,0.609v3.349c0,0.464,0.241,0.606,0.613,0.606h2.53c0.312,0,0.533-0.086,0.533-0.417
	C44.078,36.741,43.856,36.653,43.544,36.653z M48.703,32.843c-0.315,0-0.508,0.162-0.508,0.499v2.71h-0.013l-1.847-2.937
	c-0.114-0.192-0.306-0.272-0.528-0.272c-0.448,0-0.661,0.177-0.661,0.605v3.622c0,0.338,0.192,0.5,0.507,0.5
	c0.315,0,0.511-0.162,0.511-0.5v-2.634h0.011l1.832,2.853c0.138,0.213,0.247,0.281,0.579,0.281c0.445,0,0.626-0.232,0.626-0.647
	v-3.581C49.211,33.005,49.017,32.843,48.703,32.843z M53.737,32.923h-3.049c-0.298,0-0.546,0.152-0.546,0.438
	c0,0.285,0.248,0.437,0.546,0.437h0.996v3.252c0,0.313,0.209,0.521,0.529,0.521c0.323,0,0.527-0.207,0.527-0.521v-3.252h0.996
	c0.307,0,0.548-0.151,0.548-0.437C54.285,33.075,54.043,32.923,53.737,32.923z M52.443,23.653c0.126-0.188,0.247-0.38,0.36-0.579
	c0.048-0.077,0.088-0.155,0.134-0.236c-0.124-0.102-0.243-0.202-0.363-0.31c-0.441-0.385-0.876-0.776-1.351-1.12
	c-0.648-0.469-1.57-0.548-2.287-0.192c-0.698,0.347-1.148,1.046-1.757,1.51c-1.275,0.96-2.904,1.431-4.499,1.31
	c-1.554-0.117-3.017-0.802-4.117-1.89c-0.523-0.516-1.046-1.035-1.571-1.551c-0.818,0.807-2.204,1.769-2.286,3.005
	c-0.081,1.166,0.818,2.008,1.68,2.657c0.999,0.759,2.149,1.352,3.345,1.74C44.419,29.521,49.72,27.716,52.443,23.653z
	 M51.223,21.408C51.824,21.842,50.646,20.99,51.223,21.408L51.223,21.408z"/>
</svg>
