<svg xmlns="http://www.w3.org/2000/svg" width="19.875" height="19.969" viewBox="0 0 19.875 19.969">
  <defs>
    <style>
      .cls-1 {
        fill-rule: evenodd;
      }
    </style>
  </defs>
  <path id="ico-edit" class="cls-1" d="M917.43,201.462a1.5,1.5,0,0,0-1.11-.421,6.281,6.281,0,0,0-3,1.172,3.471,3.471,0,0,0-2.118-1.153,2.675,2.675,0,0,0-2.144.9,12.17,12.17,0,0,0-2.539,4.249,5.406,5.406,0,0,1-.442.963,0.194,0.194,0,0,1-.3-0.013,0.5,0.5,0,0,0-.692.01,0.5,0.5,0,0,0,0,.706,1.368,1.368,0,0,0,.559.315,1.145,1.145,0,0,0,.32.045,1.09,1.09,0,0,0,.367-0.064c-0.136.141-.273,0.281-0.409,0.424-3.5,3.667-7.413,8.7-7.932,11.823a0.5,0.5,0,0,0,.491.581,0.462,0.462,0,0,0,.082-0.007,14.237,14.237,0,0,0,5.092-2.456,50.972,50.972,0,0,0,5.9-4.783,55.249,55.249,0,0,0,5.2-5.5,17.22,17.22,0,0,0,2.916-4.685,1.979,1.979,0,0,0-.242-2.109v0Zm-7.67,1.2a1.705,1.705,0,0,1,1.356-.612,2.339,2.339,0,0,1,1.357.719q-0.368.256-.758,0.55a46.768,46.768,0,0,0-4.621,4.075c0.106-.217.215-0.488,0.347-0.815A11.313,11.313,0,0,1,909.76,202.666ZM901,216.253l1.711,1.719a15.9,15.9,0,0,1-3.548,1.844A16.1,16.1,0,0,1,901,216.253Zm7.883-3.229a51.51,51.51,0,0,1-5.333,4.379l-1.983-1.992a52.964,52.964,0,0,1,5.074-6.122,44.914,44.914,0,0,1,6.521-5.778l2.23,2.241A47.02,47.02,0,0,1,908.88,213.024Zm7.846-9.759a8.062,8.062,0,0,1-.786,1.629l-1.929-1.938a5.182,5.182,0,0,1,2.31-.917,0.519,0.519,0,0,1,.407.128,1.28,1.28,0,0,1,0,1.1h0Z" transform="translate(-898 -201.031)"/>
</svg>
