<svg xmlns="http://www.w3.org/2000/svg" width="18.906" height="18.938" viewBox="0 0 18.906 18.938">
  <defs>
    <style>
      .cls-1 {
        fill-rule: evenodd;
      }
    </style>
  </defs>
  <path id="ico-close" class="cls-1" d="M908.114,210.522l8.606-8.627a0.5,0.5,0,0,0-.7-0.705l-8.607,8.627L898.8,201.19a0.5,0.5,0,0,0-.7.705l8.606,8.627L898.1,219.15a0.5,0.5,0,0,0,.352.85,0.5,0.5,0,0,0,.353-0.145l8.6-8.627,8.607,8.627a0.5,0.5,0,0,0,.352.145,0.507,0.507,0,0,0,.353-0.145,0.5,0.5,0,0,0,0-.7l-8.607-8.628h0Z" transform="translate(-897.969 -201.062)"/>
</svg>
